<svg width="25" height="25" viewBox="0 0 25 25" fill="none" xmlns="http://www.w3.org/2000/svg">
<path d="M10 0C4.48828 0 0 4.48828 0 10C0 15.5117 4.48828 20 10 20C12.3965 20 14.5977 19.1484 16.3223 17.7363L22.293 23.707C22.543 23.9688 22.916 24.0742 23.2676 23.9824C23.6172 23.8906 23.8906 23.6172 23.9824 23.2676C24.0742 22.916 23.9688 22.543 23.707 22.293L17.7363 16.3223C19.1484 14.5977 20 12.3965 20 10C20 4.48828 15.5117 0 10 0ZM10 2C14.4297 2 18 5.57031 18 10C18 14.4297 14.4297 18 10 18C5.57031 18 2 14.4297 2 10C2 5.57031 5.57031 2 10 2Z" fill="white" fill-opacity="0.3"/>
</svg>
