<svg xmlns="http://www.w3.org/2000/svg" version="1.1" xmlns:xlink="http://www.w3.org/1999/xlink" xmlns:svgjs="http://svgjs.com/svgjs" width="1440" height="560" preserveAspectRatio="none" viewBox="0 0 1440 560"><g mask="url(&quot;#SvgjsMask1006&quot;)" fill="none"><rect width="1440" height="560" x="0" y="0" fill="rgba(0, 0, 0, 1)"></rect><path d="M 0,134 C 57.6,142.2 172.8,201 288,175 C 403.2,149 460.8,-8.4 576,4 C 691.2,16.4 748.8,223.6 864,237 C 979.2,250.4 1036.8,75.8 1152,71 C 1267.2,66.2 1382.4,184.6 1440,213L1440 560L0 560z" fill="rgba(39, 42, 45, 1)"></path><path d="M 0,453 C 96,432.6 288,341.2 480,351 C 672,360.8 768,515.8 960,502 C 1152,488.2 1344,326 1440,282L1440 560L0 560z" fill="rgba(50, 58, 65, 1)"></path></g><defs><mask id="SvgjsMask1006"><rect width="1440" height="560" fill="#ffffff"></rect></mask></defs></svg>